<?xml version="1.0" standalone="no"?>
<!DOCTYPE svg PUBLIC "-//W3C//DTD SVG 20010904//EN"
 "http://www.w3.org/TR/2001/REC-SVG-20010904/DTD/svg10.dtd">
<svg version="1.0" xmlns="http://www.w3.org/2000/svg"
 width="400.000000pt" height="400.000000pt" viewBox="0 0 400.000000 400.000000"
 preserveAspectRatio="xMidYMid meet">
<metadata>
Created by potrace 1.11, written by Peter Selinger 2001-2013
</metadata>
<g transform="translate(0.000000,400.000000) scale(0.100000,-0.100000)"
fill="#000000" stroke="none">
<path d="M2716 3393 c-75 -85 -139 -213 -134 -266 2 -26 8 -33 29 -35 20 -2
31 6 57 46 18 28 32 56 32 63 1 8 14 39 29 69 34 64 31 67 76 -82 26 -85 40
-103 70 -92 23 9 27 37 11 82 -8 22 -25 77 -36 122 -32 116 -83 151 -134 93z"/>
<path d="M1145 2890 c-3 -6 -3 -36 1 -67 l7 -56 -50 7 c-28 3 -88 17 -134 31
-99 29 -127 31 -136 9 -9 -25 10 -48 48 -55 142 -28 263 -59 279 -74 13 -12
27 -15 45 -11 l26 7 -6 82 c-4 45 -12 93 -19 107 -12 26 -49 39 -61 20z"/>
<path d="M2600 2823 c-63 -23 -151 -113 -173 -177 -40 -117 -14 -231 72 -317
123 -122 299 -122 422 0 64 64 89 124 89 211 0 87 -25 147 -89 211 -38 38 -72
61 -105 72 -61 21 -156 21 -216 0z"/>
<path d="M981 2579 c-43 -43 -43 -95 0 -138 23 -24 39 -31 69 -31 54 0 100 46
100 100 0 54 -46 100 -100 100 -30 0 -46 -7 -69 -31z"/>
<path d="M2175 1350 c-27 -4 -95 -13 -150 -20 -129 -16 -199 -39 -466 -151
-157 -66 -171 -75 -167 -108 4 -39 44 -39 104 -2 53 34 317 141 404 164 74 20
163 34 297 48 112 12 130 20 117 53 -10 25 -48 30 -139 16z"/>
</g>
</svg>
